<svg xmlns="http://www.w3.org/2000/svg" viewBox="0 0 128 128" role="img" aria-labelledby="title">
  <title id="title">VisioSpace</title>
  <defs>
    <linearGradient id="yellow" x1="0" y1="0" x2="1" y2="1"><stop stop-color="#ffc52b"/><stop offset="1" stop-color="#ee9510"/></linearGradient>
    <linearGradient id="pink" x1="0" y1="0" x2="1" y2="1"><stop stop-color="#f95d9c"/><stop offset="1" stop-color="#d9297b"/></linearGradient>
    <linearGradient id="blue" x1="0" y1="0" x2="1" y2="1"><stop stop-color="#55a1ff"/><stop offset="1" stop-color="#2e6fd4"/></linearGradient>
    <linearGradient id="teal" x1="0" y1="0" x2="1" y2="1"><stop stop-color="#20d9c0"/><stop offset="1" stop-color="#05a99c"/></linearGradient>
    <filter id="shadow" x="-30%" y="-30%" width="160%" height="170%"><feDropShadow dx="0" dy="5" stdDeviation="5" flood-color="#071426" flood-opacity=".22"/></filter>
  </defs>
  <g transform="rotate(-7 64 64)">
    <rect x="22" y="20" width="66" height="72" rx="14" fill="url(#yellow)"/>
    <rect x="12" y="39" width="66" height="72" rx="14" fill="url(#pink)"/>
    <rect x="50" y="39" width="66" height="72" rx="14" fill="url(#blue)"/>
    <rect x="34" y="59" width="66" height="56" rx="14" fill="url(#teal)"/>
    <rect x="27" y="31" width="74" height="74" rx="15" fill="#f8fafc" filter="url(#shadow)"/>
    <path d="M44 48h12l8 24 8-24h12L71 91H57z" fill="#13253d"/>
    <path d="M87 88l14 14-10 10-14-14z" fill="#dce5ee" opacity=".8"/>
  </g>
</svg>
